<?xml version="1.0" encoding="UTF-8" standalone="no"?>
<svg
   height="299.7616"
   preserveAspectRatio="xMidYMid"
   viewBox="0 0 255.27451 299.7616"
   width="255.27451"
   version="1.1"
   id="svg5"
   xmlns="http://www.w3.org/2000/svg"
   xmlns:svg="http://www.w3.org/2000/svg">
  <defs
     id="defs5" />
  <path
     d="M 78.389016,4.2482074e-4 C 76.984659,0.01382612 75.526921,0.35262238 74.198836,1.0887856 69.981315,3.4265983 68.434479,8.8464361 70.770506,13.060738 l 9.523137,17.196069 C 57.350184,44.452909 42.146676,68.700285 42.146676,96.374589 c 0,0.116171 -3.22e-4,0.29068 0,0.462553 1.13e-4,0.06065 -5.66e-4,0.09522 0,0.163247 3.5e-5,0.09044 0,0.222514 0,0.244884 v 4.271807 C 37.7402,96.447111 31.262734,93.245556 24.025506,93.245556 10.766574,93.245556 0,104.01213 0,117.27107 v 74.00838 c 0,13.25894 10.766574,24.02551 24.025506,24.02551 7.237228,0 13.714694,-3.20155 18.12117,-8.27152 v 10.36662 c 0,13.97649 11.436681,25.41317 25.413172,25.41317 h 6.448524 v 32.92285 c 0,13.259 10.766583,24.02552 24.025514,24.02552 13.258934,0 24.025514,-10.76652 24.025514,-24.02552 v -32.92285 h 11.15568 v 32.92285 c 0,13.259 10.76658,24.02552 24.02551,24.02552 13.25893,0 24.02553,-10.76652 24.02553,-24.02552 v -32.92285 h 6.44852 c 13.97649,0 25.41317,-11.43668 25.41317,-25.41317 v -10.36662 c 4.40649,5.06997 10.88394,8.27152 18.12117,8.27152 13.25894,0 24.02552,-10.76657 24.02552,-24.02551 v -74.00838 c 0,-13.25894 -10.76658,-24.025514 -24.02552,-24.025514 -7.23723,0 -13.71468,3.201555 -18.12117,8.271524 V 97.3269 97.24529 c 5.6e-4,-0.130964 1.5e-4,-0.261215 0,-0.244876 0.002,-0.26081 0,-0.468626 0,-0.625808 0,-27.669459 -15.23741,-51.893442 -38.17418,-66.090575 l 9.55035,-17.223319 C 186.84001,8.8464103 185.29318,3.4265725 181.07565,1.0887599 179.74756,0.35259658 178.28983,0.01381757 176.88548,3.9905074e-4 173.77098,-0.02941035 170.71404,1.6119792 169.1037,4.5170895 l -9.98569,18.0395555 c -9.7641,-3.603191 -20.38794,-5.577845 -31.48076,-5.577845 -11.08152,0 -21.72489,1.95444 -31.480781,5.55063 L 86.170777,4.5170895 C 84.560453,1.6119706 81.503506,-0.02934162 78.389016,3.9905074e-4 Z"
     fill="#ffffff"
     id="path1" />
  <g
     fill="#a4c639"
     id="g4"
     style="fill:#32de84;fill-opacity:1"
     transform="translate(0,-0.85805142)">
    <path
       d="m 24.026073,100.36166 c -9.894373,0 -17.7674541,7.87309 -17.7674541,17.76746 v 74.00838 c 0,9.89437 7.8730811,17.76746 17.7674541,17.76746 9.894371,0 17.767453,-7.87309 17.767453,-17.76746 v -74.00838 c 0,-9.89437 -7.873082,-17.76746 -17.767453,-17.76746 z m 207.223477,0 c -9.89437,0 -17.76746,7.87309 -17.76746,17.76746 v 74.00838 c 0,9.89437 7.87309,17.76746 17.76746,17.76746 9.89437,0 17.76745,-7.87309 17.76745,-17.76746 v -74.00838 c 0,-9.89437 -7.87308,-17.76746 -17.76745,-17.76746 z"
       id="path2"
       style="fill:#32de84;fill-opacity:1" />
    <path
       d="m 98.033886,184.81807 c -9.894375,0 -17.767452,7.87309 -17.767452,17.76746 v 74.00843 c 0,9.8944 7.873077,17.76735 17.767452,17.76735 9.894374,0 17.767454,-7.87295 17.767454,-17.76735 v -74.00843 c 0,-9.89437 -7.87308,-17.76745 -17.767454,-17.76746 z m 59.206714,0 c -9.89438,0 -17.76746,7.87309 -17.76746,17.76746 v 74.00843 c 0,9.8944 7.87308,17.76735 17.76746,17.76735 9.89437,0 17.76744,-7.87295 17.76744,-17.76735 v -74.00843 c 0,-9.89437 -7.87307,-17.76745 -17.76744,-17.76746 z"
       id="path3"
       style="fill:#32de84;fill-opacity:1" />
    <path
       d="m 78.443434,7.1165423 c -0.420011,0.0043 -0.811384,0.1126572 -1.197194,0.3265031 -1.266954,0.7022904 -1.683587,2.1581745 -0.979523,3.4283386 l 12.516119,22.61065 C 64.702394,46.011756 48.437336,69.823253 48.404738,97.151012 H 206.86975 C 206.83719,69.823253 190.5721,46.011756 166.49164,33.482034 l 12.51614,-22.61065 c 0.70406,-1.2701641 0.28742,-2.7260482 -0.97953,-3.4283386 -0.38581,-0.2138459 -0.77718,-0.3224999 -1.19719,-0.3265031 -0.89914,-0.00868 -1.75141,0.4405777 -2.23115,1.3060295 L 161.92053,31.278106 c -10.37223,-4.600784 -22.0063,-7.183163 -34.28328,-7.183163 -12.277,0 -23.91108,2.582379 -34.283302,7.183163 L 80.674569,8.4225718 C 80.194838,7.55712 79.342558,7.1079173 78.443434,7.1165423 Z M 48.404738,103.40907 v 114.84904 c 0,10.61193 8.543179,19.1551 19.15511,19.1551 H 187.71464 c 10.61194,0 19.15511,-8.54317 19.15511,-19.1551 V 103.40907 Z"
       id="path4"
       style="fill:#32de84;fill-opacity:1" />
  </g>
  <path
     d="m 91.068177,54.064644 c -3.61746,0 -6.61178,2.994316 -6.61178,6.611785 0,3.61746 2.99432,6.611775 6.61178,6.611775 3.617461,0 6.611776,-2.994315 6.611776,-6.611776 0,-3.617469 -2.994315,-6.611784 -6.611776,-6.611784 z m 73.137693,0 c -3.61746,0 -6.61178,2.994316 -6.61178,6.611785 0,3.61746 2.99432,6.611775 6.61178,6.611775 3.61746,0 6.61178,-2.994315 6.61178,-6.611776 0,-3.617469 -2.99432,-6.611784 -6.61178,-6.611784 z"
     fill="#ffffff"
     id="path5" />
</svg>
